<mxfile host="app.diagrams.net" agent="Mozilla/5.0 (Macintosh; Intel Mac OS X 10_15_7) AppleWebKit/537.36 (KHTML, like Gecko) Chrome/127.0.0.0 Safari/537.36" version="24.7.7">
  <diagram name="第 1 页" id="wEHuh2VfM4xeDzPwXbUZ">
    <mxGraphModel dx="896" dy="594" grid="1" gridSize="10" guides="1" tooltips="1" connect="1" arrows="1" fold="1" page="1" pageScale="1" pageWidth="827" pageHeight="1169" math="0" shadow="0">
      <root>
        <mxCell id="0" />
        <mxCell id="1" parent="0" />
        <mxCell id="QzxibVGq3oDXRepvdtmR-1" value="encoding" style="rounded=0;whiteSpace=wrap;html=1;" vertex="1" parent="1">
          <mxGeometry x="170" y="170" width="70" height="30" as="geometry" />
        </mxCell>
        <mxCell id="QzxibVGq3oDXRepvdtmR-2" value="length" style="rounded=0;whiteSpace=wrap;html=1;" vertex="1" parent="1">
          <mxGeometry x="170" y="200" width="70" height="30" as="geometry" />
        </mxCell>
        <mxCell id="QzxibVGq3oDXRepvdtmR-16" style="edgeStyle=orthogonalEdgeStyle;rounded=0;orthogonalLoop=1;jettySize=auto;html=1;entryX=0;entryY=0.5;entryDx=0;entryDy=0;" edge="1" parent="1" source="QzxibVGq3oDXRepvdtmR-3" target="QzxibVGq3oDXRepvdtmR-4">
          <mxGeometry relative="1" as="geometry" />
        </mxCell>
        <mxCell id="QzxibVGq3oDXRepvdtmR-3" value="contents" style="rounded=0;whiteSpace=wrap;html=1;" vertex="1" parent="1">
          <mxGeometry x="170" y="230" width="70" height="30" as="geometry" />
        </mxCell>
        <mxCell id="QzxibVGq3oDXRepvdtmR-4" value="" style="rounded=0;whiteSpace=wrap;html=1;" vertex="1" parent="1">
          <mxGeometry x="290" y="232.5" width="30" height="25" as="geometry" />
        </mxCell>
        <mxCell id="QzxibVGq3oDXRepvdtmR-5" value="" style="rounded=0;whiteSpace=wrap;html=1;" vertex="1" parent="1">
          <mxGeometry x="320" y="232.5" width="30" height="25" as="geometry" />
        </mxCell>
        <mxCell id="QzxibVGq3oDXRepvdtmR-6" value="" style="rounded=0;whiteSpace=wrap;html=1;" vertex="1" parent="1">
          <mxGeometry x="350" y="232.5" width="30" height="25" as="geometry" />
        </mxCell>
        <mxCell id="QzxibVGq3oDXRepvdtmR-7" value="" style="rounded=0;whiteSpace=wrap;html=1;" vertex="1" parent="1">
          <mxGeometry x="380" y="232.5" width="30" height="25" as="geometry" />
        </mxCell>
        <mxCell id="QzxibVGq3oDXRepvdtmR-8" value="" style="rounded=0;whiteSpace=wrap;html=1;" vertex="1" parent="1">
          <mxGeometry x="410" y="232.5" width="30" height="25" as="geometry" />
        </mxCell>
        <mxCell id="QzxibVGq3oDXRepvdtmR-9" value="" style="rounded=0;whiteSpace=wrap;html=1;" vertex="1" parent="1">
          <mxGeometry x="440" y="232.5" width="30" height="25" as="geometry" />
        </mxCell>
        <mxCell id="QzxibVGq3oDXRepvdtmR-10" value="" style="rounded=0;whiteSpace=wrap;html=1;" vertex="1" parent="1">
          <mxGeometry x="470" y="232.5" width="30" height="25" as="geometry" />
        </mxCell>
        <mxCell id="QzxibVGq3oDXRepvdtmR-11" value="" style="rounded=0;whiteSpace=wrap;html=1;" vertex="1" parent="1">
          <mxGeometry x="500" y="232.5" width="30" height="25" as="geometry" />
        </mxCell>
        <mxCell id="QzxibVGq3oDXRepvdtmR-12" value="" style="rounded=0;whiteSpace=wrap;html=1;" vertex="1" parent="1">
          <mxGeometry x="530" y="232.5" width="30" height="25" as="geometry" />
        </mxCell>
        <mxCell id="QzxibVGq3oDXRepvdtmR-13" value="" style="rounded=0;whiteSpace=wrap;html=1;" vertex="1" parent="1">
          <mxGeometry x="560" y="232.5" width="30" height="25" as="geometry" />
        </mxCell>
        <mxCell id="QzxibVGq3oDXRepvdtmR-14" value="" style="rounded=0;whiteSpace=wrap;html=1;" vertex="1" parent="1">
          <mxGeometry x="590" y="232.5" width="30" height="25" as="geometry" />
        </mxCell>
        <mxCell id="QzxibVGq3oDXRepvdtmR-15" value="" style="rounded=0;whiteSpace=wrap;html=1;" vertex="1" parent="1">
          <mxGeometry x="620" y="232.5" width="30" height="25" as="geometry" />
        </mxCell>
        <mxCell id="QzxibVGq3oDXRepvdtmR-17" value="" style="shape=curlyBracket;whiteSpace=wrap;html=1;rounded=1;labelPosition=left;verticalLabelPosition=middle;align=right;verticalAlign=middle;rotation=90;" vertex="1" parent="1">
          <mxGeometry x="340" y="150" width="20" height="120" as="geometry" />
        </mxCell>
        <mxCell id="QzxibVGq3oDXRepvdtmR-18" value="" style="shape=curlyBracket;whiteSpace=wrap;html=1;rounded=1;labelPosition=left;verticalLabelPosition=middle;align=right;verticalAlign=middle;rotation=90;" vertex="1" parent="1">
          <mxGeometry x="460" y="150" width="20" height="120" as="geometry" />
        </mxCell>
        <mxCell id="QzxibVGq3oDXRepvdtmR-19" value="" style="shape=curlyBracket;whiteSpace=wrap;html=1;rounded=1;labelPosition=left;verticalLabelPosition=middle;align=right;verticalAlign=middle;rotation=90;" vertex="1" parent="1">
          <mxGeometry x="580" y="150" width="20" height="120" as="geometry" />
        </mxCell>
        <mxCell id="QzxibVGq3oDXRepvdtmR-20" value="int32_t" style="text;html=1;align=center;verticalAlign=middle;resizable=0;points=[];autosize=1;strokeColor=none;fillColor=none;" vertex="1" parent="1">
          <mxGeometry x="320" y="170" width="60" height="30" as="geometry" />
        </mxCell>
        <mxCell id="QzxibVGq3oDXRepvdtmR-21" value="int32_t" style="text;html=1;align=center;verticalAlign=middle;resizable=0;points=[];autosize=1;strokeColor=none;fillColor=none;" vertex="1" parent="1">
          <mxGeometry x="440" y="170" width="60" height="30" as="geometry" />
        </mxCell>
        <mxCell id="QzxibVGq3oDXRepvdtmR-22" value="int32_t" style="text;html=1;align=center;verticalAlign=middle;resizable=0;points=[];autosize=1;strokeColor=none;fillColor=none;" vertex="1" parent="1">
          <mxGeometry x="560" y="170" width="60" height="30" as="geometry" />
        </mxCell>
        <mxCell id="QzxibVGq3oDXRepvdtmR-23" value="位" style="rounded=0;whiteSpace=wrap;html=1;" vertex="1" parent="1">
          <mxGeometry x="200" y="400" width="40" height="20" as="geometry" />
        </mxCell>
        <mxCell id="QzxibVGq3oDXRepvdtmR-24" value="0-15位" style="rounded=0;whiteSpace=wrap;html=1;" vertex="1" parent="1">
          <mxGeometry x="240" y="400" width="60" height="20" as="geometry" />
        </mxCell>
        <mxCell id="QzxibVGq3oDXRepvdtmR-35" value="元素" style="rounded=0;whiteSpace=wrap;html=1;" vertex="1" parent="1">
          <mxGeometry x="200" y="420" width="40" height="20" as="geometry" />
        </mxCell>
        <mxCell id="QzxibVGq3oDXRepvdtmR-36" value="1" style="rounded=0;whiteSpace=wrap;html=1;" vertex="1" parent="1">
          <mxGeometry x="240" y="420" width="60" height="20" as="geometry" />
        </mxCell>
        <mxCell id="QzxibVGq3oDXRepvdtmR-48" value="16-31位" style="rounded=0;whiteSpace=wrap;html=1;" vertex="1" parent="1">
          <mxGeometry x="300" y="400" width="60" height="20" as="geometry" />
        </mxCell>
        <mxCell id="QzxibVGq3oDXRepvdtmR-49" value="2" style="rounded=0;whiteSpace=wrap;html=1;" vertex="1" parent="1">
          <mxGeometry x="300" y="420" width="60" height="20" as="geometry" />
        </mxCell>
        <mxCell id="QzxibVGq3oDXRepvdtmR-50" value="32-47位" style="rounded=0;whiteSpace=wrap;html=1;" vertex="1" parent="1">
          <mxGeometry x="360" y="400" width="60" height="20" as="geometry" />
        </mxCell>
        <mxCell id="QzxibVGq3oDXRepvdtmR-54" value="3" style="rounded=0;whiteSpace=wrap;html=1;" vertex="1" parent="1">
          <mxGeometry x="360" y="420" width="60" height="20" as="geometry" />
        </mxCell>
        <mxCell id="QzxibVGq3oDXRepvdtmR-59" value="位" style="rounded=0;whiteSpace=wrap;html=1;" vertex="1" parent="1">
          <mxGeometry x="200" y="500" width="40" height="20" as="geometry" />
        </mxCell>
        <mxCell id="QzxibVGq3oDXRepvdtmR-60" value="0-63位" style="rounded=0;whiteSpace=wrap;html=1;" vertex="1" parent="1">
          <mxGeometry x="240" y="500" width="90" height="20" as="geometry" />
        </mxCell>
        <mxCell id="QzxibVGq3oDXRepvdtmR-61" value="元素" style="rounded=0;whiteSpace=wrap;html=1;" vertex="1" parent="1">
          <mxGeometry x="200" y="520" width="40" height="20" as="geometry" />
        </mxCell>
        <mxCell id="QzxibVGq3oDXRepvdtmR-62" value="" style="rounded=0;whiteSpace=wrap;html=1;" vertex="1" parent="1">
          <mxGeometry x="240" y="520" width="90" height="20" as="geometry" />
        </mxCell>
        <mxCell id="QzxibVGq3oDXRepvdtmR-63" value="64-127位" style="rounded=0;whiteSpace=wrap;html=1;" vertex="1" parent="1">
          <mxGeometry x="330" y="500" width="90" height="20" as="geometry" />
        </mxCell>
        <mxCell id="QzxibVGq3oDXRepvdtmR-64" value="" style="rounded=0;whiteSpace=wrap;html=1;" vertex="1" parent="1">
          <mxGeometry x="330" y="520" width="90" height="20" as="geometry" />
        </mxCell>
        <mxCell id="QzxibVGq3oDXRepvdtmR-65" value="128-191位" style="rounded=0;whiteSpace=wrap;html=1;" vertex="1" parent="1">
          <mxGeometry x="420" y="500" width="90" height="20" as="geometry" />
        </mxCell>
        <mxCell id="QzxibVGq3oDXRepvdtmR-66" value="" style="rounded=0;whiteSpace=wrap;html=1;" vertex="1" parent="1">
          <mxGeometry x="420" y="520" width="90" height="20" as="geometry" />
        </mxCell>
        <mxCell id="QzxibVGq3oDXRepvdtmR-73" value="192-255位" style="rounded=0;whiteSpace=wrap;html=1;" vertex="1" parent="1">
          <mxGeometry x="510" y="500" width="90" height="20" as="geometry" />
        </mxCell>
        <mxCell id="QzxibVGq3oDXRepvdtmR-74" value="" style="rounded=0;whiteSpace=wrap;html=1;" vertex="1" parent="1">
          <mxGeometry x="510" y="520" width="90" height="20" as="geometry" />
        </mxCell>
        <mxCell id="QzxibVGq3oDXRepvdtmR-75" value="位" style="rounded=0;whiteSpace=wrap;html=1;" vertex="1" parent="1">
          <mxGeometry x="140" y="610" width="40" height="20" as="geometry" />
        </mxCell>
        <mxCell id="QzxibVGq3oDXRepvdtmR-76" value="0-63位" style="rounded=0;whiteSpace=wrap;html=1;" vertex="1" parent="1">
          <mxGeometry x="180" y="610" width="150" height="20" as="geometry" />
        </mxCell>
        <mxCell id="QzxibVGq3oDXRepvdtmR-77" value="元素" style="rounded=0;whiteSpace=wrap;html=1;" vertex="1" parent="1">
          <mxGeometry x="140" y="630" width="40" height="20" as="geometry" />
        </mxCell>
        <mxCell id="QzxibVGq3oDXRepvdtmR-78" value="-2675256175807981027" style="rounded=0;whiteSpace=wrap;html=1;" vertex="1" parent="1">
          <mxGeometry x="180" y="630" width="150" height="20" as="geometry" />
        </mxCell>
        <mxCell id="QzxibVGq3oDXRepvdtmR-86" value="64-127位" style="rounded=0;whiteSpace=wrap;html=1;" vertex="1" parent="1">
          <mxGeometry x="330" y="610" width="150" height="20" as="geometry" />
        </mxCell>
        <mxCell id="QzxibVGq3oDXRepvdtmR-87" value="1" style="rounded=0;whiteSpace=wrap;html=1;" vertex="1" parent="1">
          <mxGeometry x="330" y="630" width="150" height="20" as="geometry" />
        </mxCell>
        <mxCell id="QzxibVGq3oDXRepvdtmR-90" value="128-191位" style="rounded=0;whiteSpace=wrap;html=1;" vertex="1" parent="1">
          <mxGeometry x="480" y="610" width="150" height="20" as="geometry" />
        </mxCell>
        <mxCell id="QzxibVGq3oDXRepvdtmR-91" value="2" style="rounded=0;whiteSpace=wrap;html=1;" vertex="1" parent="1">
          <mxGeometry x="480" y="630" width="150" height="20" as="geometry" />
        </mxCell>
        <mxCell id="QzxibVGq3oDXRepvdtmR-92" value="192-255位" style="rounded=0;whiteSpace=wrap;html=1;" vertex="1" parent="1">
          <mxGeometry x="630" y="610" width="150" height="20" as="geometry" />
        </mxCell>
        <mxCell id="QzxibVGq3oDXRepvdtmR-93" value="3" style="rounded=0;whiteSpace=wrap;html=1;" vertex="1" parent="1">
          <mxGeometry x="630" y="630" width="150" height="20" as="geometry" />
        </mxCell>
      </root>
    </mxGraphModel>
  </diagram>
</mxfile>
